<svg width="32" height="32" viewBox="0 0 32 32" fill="none" xmlns="http://www.w3.org/2000/svg">
  <!-- Tree/Network icon only - no background -->
  <g fill="#00A9FF" stroke="#00A9FF" stroke-width="1">
    <!-- Main trunk with rounded top -->
    <rect x="15" y="20" width="2" height="8" rx="1" ry="1"/>
    
    <!-- Curved branches -->
    <rect x="12" y="16" width="8" height="2" rx="1" ry="1"/>
    <rect x="10" y="12" width="12" height="2" rx="1" ry="1"/>
    <rect x="8" y="8" width="16" height="2" rx="1" ry="1"/>
    
    <!-- Rounded connection nodes -->
    <circle cx="8" cy="9" r="1.5"/>
    <circle cx="12" cy="9" r="1.5"/>
    <circle cx="16" cy="9" r="1.5"/>
    <circle cx="20" cy="9" r="1.5"/>
    <circle cx="24" cy="9" r="1.5"/>
    
    <circle cx="10" cy="13" r="1.5"/>
    <circle cx="14" cy="13" r="1.5"/>
    <circle cx="18" cy="13" r="1.5"/>
    <circle cx="22" cy="13" r="1.5"/>
    
    <circle cx="12" cy="17" r="1.5"/>
    <circle cx="16" cy="17" r="1.5"/>
    <circle cx="20" cy="17" r="1.5"/>
    
    <!-- Curved top accent -->
    <path d="M6 6 Q16 2 26 6" stroke="#00A9FF" stroke-width="1.5" fill="none" stroke-linecap="round"/>
  </g>
</svg>